<?xml version="1.0" encoding="UTF-8" standalone="no"?>
<svg width="16px" height="16px" viewBox="0 0 16 16" version="1.1" xmlns="http://www.w3.org/2000/svg" xmlns:xlink="http://www.w3.org/1999/xlink">
    <!-- Generator: Sketch 39.1 (31720) - http://www.bohemiancoding.com/sketch -->
    <title>16x</title>
    <desc>Created with Sketch.</desc>
    <defs>
        <path d="M7.99869686,3.23358853 C7.24912852,1.86685128 5.83495683,1 4.26075908,1 C1.91510018,1 0,2.93282294 0,5.29568334 C0,6.46330021 0.358103926,7.24570777 1.29584623,8.58742466 C1.62684476,9.06698159 2.06782864,9.58928164 2.60628767,10.1475485 C3.07385568,10.6328392 3.60866591,11.1389803 4.19820818,11.6602378 C4.96393549,12.3368301 5.78335234,13.0050823 6.60172667,13.6363251 C6.88789705,13.8568171 7.15425965,14.0575012 7.3929956,14.2336863 C7.53738394,14.3400228 7.64111419,14.4150839 7.69688874,14.455742 L7.99973937,14.6720639 L8.30259,14.455742 C8.35888581,14.4150839 8.4620948,14.3400228 8.60648314,14.2336863 C8.84574035,14.0575012 9.11158169,13.8568171 9.39827333,13.6363251 C10.2171689,13.0050823 11.0355432,12.3368301 11.8012706,11.6602378 C12.3913341,11.1389803 12.9261443,10.6328392 13.3937123,10.1475485 C13.9321714,9.58928164 14.3736765,9.06698159 14.7036325,8.58742466 C15.6418961,7.24570777 16,6.46330021 16,5.29568334 C16,2.93282294 14.0848998,1 11.7392409,1 C10.1608731,1 8.74044633,1.87571266 7.99869686,3.23358853 L7.99869686,3.23358853 Z" id="path-1"></path>
    </defs>
    <g id="exploreRibbonWeb" stroke="none" stroke-width="1" fill="none" fill-rule="evenodd">
        <g id="16x">
            <mask id="mask-2" fill="white">
                <use xlink:href="#path-1"></use>
            </mask>
            <use id="fave" fill="#007BC6" xlink:href="#path-1"></use>
        </g>
    </g>
</svg>